<?xml version="1.0" standalone="no"?>
<!DOCTYPE svg PUBLIC "-//W3C//DTD SVG 20010904//EN"
 "http://www.w3.org/TR/2001/REC-SVG-20010904/DTD/svg10.dtd">
<svg version="1.0" xmlns="http://www.w3.org/2000/svg"
 width="189.000000pt" height="189.000000pt" viewBox="0 0 189.000000 189.000000"
 preserveAspectRatio="xMidYMid meet">
<metadata>
Created by potrace 1.11, written by Peter Selinger 2001-2013
</metadata>
<g transform="translate(0.000000,189.000000) scale(0.100000,-0.100000)"
fill="#000000" stroke="none">
<path d="M815 1833 c-61 -12 -181 -46 -191 -54 -6 -5 -14 -6 -17 -2 -4 3 -7 0
-7 -7 0 -7 -3 -11 -6 -7 -8 8 -104 -44 -174 -96 -104 -76 -218 -209 -265 -312
-11 -22 -21 -42 -24 -45 -4 -3 -7 -9 -8 -15 -1 -5 -11 -36 -23 -68 -19 -54
-31 -111 -34 -162 -1 -18 5 -20 57 -20 32 0 62 2 67 5 4 3 10 21 13 40 12 78
56 190 112 279 29 47 132 154 185 193 51 38 167 98 174 91 3 -4 6 -1 6 5 0 7
3 11 8 10 4 -1 32 4 62 12 67 17 67 17 83 19 9 1 13 21 14 66 1 69 -1 74 -32
68z"/>
<path d="M1041 1818 c-6 -10 -7 -18 -3 -18 5 0 7 -20 6 -45 -3 -55 -5 -53 91
-71 17 -3 34 -9 40 -15 5 -5 15 -9 23 -9 14 0 143 -59 152 -70 3 -3 20 -17 39
-30 55 -38 99 -81 144 -140 23 -30 45 -57 48 -60 8 -7 70 -138 73 -153 1 -6 5
-18 10 -25 4 -7 9 -23 11 -35 5 -32 15 -80 19 -92 3 -9 60 -12 123 -6 8 1 12
36 3 36 -1 0 -3 19 -6 43 -2 24 -9 52 -15 63 -5 11 -7 23 -4 28 3 5 0 11 -5
13 -6 2 -12 13 -13 26 0 12 -5 22 -9 22 -4 0 -8 6 -8 13 0 21 -59 128 -103
187 -50 68 -197 212 -197 195 0 -3 -7 0 -15 7 -9 7 -21 18 -28 23 -26 22 -175
89 -222 100 -138 32 -142 33 -154 13z"/>
<path d="M800 1434 c-105 -35 -244 -144 -285 -224 -10 -19 -23 -38 -29 -42 -6
-4 -8 -8 -4 -8 4 0 -1 -22 -11 -48 -22 -54 -18 -68 19 -67 29 0 49 16 53 42 2
10 15 41 30 68 45 86 119 152 214 190 54 22 57 26 59 59 2 37 -7 42 -46 30z"/>
<path d="M1044 1404 c2 -33 6 -37 58 -58 31 -13 75 -38 97 -55 69 -55 140
-153 148 -206 4 -25 29 -44 51 -40 9 2 22 4 29 4 28 2 -41 154 -107 236 -25
30 -49 54 -54 55 -4 0 -27 15 -49 33 -23 17 -42 31 -44 30 -1 -1 -20 5 -40 14
-21 9 -50 17 -65 19 -24 2 -26 0 -24 -32z"/>
<path d="M84 852 c-24 -3 -24 -29 0 -127 19 -75 93 -244 116 -265 3 -3 23 -29
44 -57 107 -149 301 -276 491 -322 107 -26 110 -25 111 34 3 77 0 80 -68 94
-35 7 -67 16 -73 19 -5 4 -12 7 -15 7 -19 3 -80 31 -80 37 0 4 -4 7 -8 6 -12
-4 -142 81 -142 93 0 5 -4 9 -10 9 -13 0 -87 81 -123 134 -25 36 -79 132 -82
146 -1 3 -4 12 -8 20 -11 30 -26 86 -32 120 -3 19 -9 38 -13 41 -8 8 -79 15
-108 11z"/>
<path d="M468 852 c-14 -3 -15 -8 -6 -35 5 -18 10 -36 12 -42 4 -17 40 -89 51
-102 5 -7 24 -30 40 -51 56 -74 184 -153 250 -156 27 -1 30 2 30 28 0 31 0 31
-89 73 -98 46 -189 153 -220 259 -7 22 -36 33 -68 26z"/>
<path d="M1379 853 c-14 -3 -46 -62 -54 -100 -4 -15 -62 -91 -86 -113 -43 -38
-64 -54 -68 -51 -2 1 -7 -1 -10 -6 -3 -5 -32 -20 -63 -33 -55 -22 -56 -24 -55
-60 l1 -37 36 9 c72 20 199 97 223 135 5 7 16 21 26 31 42 39 95 148 101 207
2 11 -30 23 -51 18z"/>
<path d="M1728 852 c-31 -3 -38 -7 -38 -24 0 -11 -10 -53 -22 -92 -12 -39 -21
-74 -20 -78 1 -5 -3 -8 -9 -8 -5 0 -7 -4 -4 -10 3 -5 1 -10 -5 -10 -6 0 -8 -4
-5 -10 3 -5 1 -10 -5 -10 -6 0 -8 -4 -5 -10 3 -5 1 -10 -4 -10 -6 0 -11 -5
-11 -11 0 -16 -81 -129 -93 -129 -6 0 -8 -3 -5 -6 4 -3 -12 -22 -35 -42 -23
-20 -44 -40 -47 -43 -9 -10 -135 -93 -138 -91 -1 1 -15 -4 -30 -11 -31 -16
-115 -44 -152 -51 -56 -10 -59 -14 -57 -81 l1 -63 36 4 c19 3 43 7 52 10 9 3
27 7 40 10 36 8 59 16 118 41 8 3 17 7 20 8 15 3 82 42 135 77 69 46 215 192
215 216 0 8 3 12 7 9 7 -7 9 -4 59 90 26 49 79 179 83 206 0 4 1 8 2 10 3 9 8
47 11 72 3 25 -1 30 -27 35 -16 3 -47 4 -67 2z"/>
</g>
</svg>
