<?xml version="1.0" encoding="UTF-8" standalone="no"?><!DOCTYPE svg PUBLIC "-//W3C//DTD SVG 1.1//EN" "http://www.w3.org/Graphics/SVG/1.1/DTD/svg11.dtd"><svg width="100%" height="100%" viewBox="0 0 422 422" version="1.1" xmlns="http://www.w3.org/2000/svg" xmlns:xlink="http://www.w3.org/1999/xlink" xml:space="preserve" style="fill-rule:evenodd;clip-rule:evenodd;stroke-linejoin:round;stroke-miterlimit:1.41421;"><g><g><path d="M390.061,187.409l31.686,0c-10.868,-98.292 -89.117,-176.542 -187.409,-187.409l0,31.685c80.932,10.544 145.179,74.792 155.723,155.724" style="fill:#fffef5;fill-rule:nonzero;"/><path d="M31.685,234.338l-31.685,0c10.866,98.292 89.115,176.542 187.408,187.409l0,-31.685c-80.932,-10.545 -145.179,-74.791 -155.723,-155.724" style="fill:#fffef5;fill-rule:nonzero;"/><path d="M234.338,310.268l0,18.196c47.329,-9.429 84.696,-46.796 94.125,-94.126l-18.196,0c-8.854,37.506 -38.423,67.076 -75.929,75.93" style="fill:#fffef5;fill-rule:nonzero;"/><path d="M187.408,111.48l0,-18.196c-47.329,9.429 -84.696,46.796 -94.125,94.125l18.197,0c8.854,-37.506 38.423,-67.075 75.928,-75.929" style="fill:#fffef5;fill-rule:nonzero;"/></g><g><path d="M187.408,31.685l0,-31.685c-98.292,10.867 -176.541,89.117 -187.408,187.409l31.685,0c10.545,-80.932 74.792,-145.18 155.723,-155.724" style="fill:#6c98e0;fill-rule:nonzero;"/><path d="M234.338,390.062l0,31.685c98.293,-10.867 176.542,-89.117 187.408,-187.409l-31.685,0c-10.544,80.932 -74.791,145.179 -155.723,155.724" style="fill:#d74693;fill-rule:nonzero;"/><path d="M310.267,187.409l18.196,0c-9.428,-47.329 -46.796,-84.696 -94.125,-94.125l0,18.196c37.506,8.854 67.075,38.423 75.929,75.929" style="fill:#d74693;fill-rule:nonzero;"/><path d="M111.48,234.338l-18.197,0c9.429,47.33 46.796,84.697 94.125,94.126l0,-18.196c-37.506,-8.855 -67.074,-38.425 -75.928,-75.93" style="fill:#6c98e0;fill-rule:nonzero;"/></g></g></svg>