<?xml version="1.0" encoding="UTF-8" standalone="no"?><!DOCTYPE svg PUBLIC "-//W3C//DTD SVG 1.1//EN" "http://www.w3.org/Graphics/SVG/1.1/DTD/svg11.dtd"><svg width="100%" height="100%" viewBox="0 0 1334 823" version="1.1" xmlns="http://www.w3.org/2000/svg" xmlns:xlink="http://www.w3.org/1999/xlink" xml:space="preserve" style="fill-rule:evenodd;clip-rule:evenodd;stroke-linejoin:round;stroke-miterlimit:1.41421;"><rect id="bounding" x="0" y="0" width="1333.46" height="822.014" style="fill:none;"/><g><g><path d="M846.225,234.338l31.686,0c-10.868,-98.292 -89.117,-176.542 -187.409,-187.409l0,31.685c80.932,10.544 145.179,74.792 155.723,155.724" style="fill:#fffef5;fill-rule:nonzero;"/><path d="M487.849,281.266l-31.685,0c10.866,98.292 89.115,176.542 187.408,187.409l0,-31.685c-80.932,-10.545 -145.179,-74.791 -155.723,-155.724" style="fill:#fffef5;fill-rule:nonzero;"/><path d="M690.502,357.196l0,18.196c47.329,-9.429 84.696,-46.796 94.125,-94.126l-18.196,0c-8.854,37.506 -38.423,67.076 -75.929,75.93" style="fill:#fffef5;fill-rule:nonzero;"/><path d="M643.572,158.409l0,-18.196c-47.329,9.429 -84.696,46.796 -94.125,94.125l18.197,0c8.854,-37.506 38.423,-67.075 75.928,-75.929" style="fill:#fffef5;fill-rule:nonzero;"/></g><g><path d="M643.572,78.613l0,-31.685c-98.292,10.867 -176.541,89.117 -187.408,187.409l31.685,0c10.545,-80.932 74.792,-145.18 155.723,-155.724" style="fill:#6c98e0;fill-rule:nonzero;"/><path d="M690.502,436.99l0,31.685c98.293,-10.867 176.542,-89.117 187.408,-187.409l-31.685,0c-10.544,80.932 -74.791,145.179 -155.723,155.724" style="fill:#d74693;fill-rule:nonzero;"/><path d="M766.431,234.338l18.196,0c-9.428,-47.329 -46.796,-84.696 -94.125,-94.125l0,18.196c37.506,8.854 67.075,38.423 75.929,75.929" style="fill:#d74693;fill-rule:nonzero;"/><path d="M567.644,281.266l-18.197,0c9.429,47.33 46.796,84.697 94.125,94.126l0,-18.196c-37.506,-8.855 -67.074,-38.425 -75.928,-75.93" style="fill:#6c98e0;fill-rule:nonzero;"/></g></g><g><path d="M42.462,771.773l-42.462,0l0,-214.332l52.572,0l35.385,121.32l35.385,-121.32l52.572,0l0,214.332l-42.462,0l0,-143.899l-27.634,97.393l-35.722,0l-27.634,-97.056l0,143.562Z" style="fill:#fffef3;fill-rule:nonzero;"/><path d="M270.882,733.338l51.356,0l0,38.435l-97.742,0l0,-214.371l97.742,0l0,37.772l-51.356,0l0,50.362l48.043,0l0,36.446l-48.043,0l0,51.356Z" style="fill:#fffef3;fill-rule:nonzero;"/><path d="M499.168,557.402l-36.446,98.405l43.404,115.966l-47.38,0l-31.808,-84.821l-14.91,0l0,84.821l-46.386,0l0,-214.371l46.386,0l0,89.791l11.266,0l33.464,-89.791l42.41,0Z" style="fill:#fffef3;fill-rule:nonzero;"/><path d="M623.748,554.089c27.39,0 41.085,14.578 41.085,43.735l0,173.949l-46.386,0l0,-71.899l-33.464,0l0,71.899l-46.387,0l0,-173.949c0,-29.157 13.695,-43.735 41.085,-43.735l44.067,0Zm-38.765,110.001l33.464,0l0,-71.898c0,-1.767 -0.607,-3.314 -1.822,-4.639c-1.215,-1.325 -2.706,-1.988 -4.473,-1.988l-20.874,0c-1.767,0 -3.258,0.663 -4.473,1.988c-1.215,1.325 -1.822,2.872 -1.822,4.639l0,71.898Z" style="fill:#fffef3;fill-rule:nonzero;"/><path d="M795.709,736.652l0,-33.133l44.066,0l0,27.831c0,29.157 -13.694,43.736 -41.084,43.736l-41.748,0c-27.39,0 -41.085,-14.579 -41.085,-43.736l0,-133.526c0,-29.157 13.695,-43.735 41.085,-43.735l41.748,0c27.39,0 41.084,14.578 41.084,43.735l0,20.212l-44.066,0l0,-25.844c0,-1.767 -0.608,-3.314 -1.823,-4.639c-1.215,-1.325 -2.706,-1.988 -4.473,-1.988l-20.873,0c-1.768,0 -3.259,0.663 -4.473,1.988c-1.215,1.325 -1.823,2.872 -1.823,4.639l0,144.46c0,1.767 0.608,3.313 1.823,4.638c1.214,1.326 2.705,1.988 4.473,1.988l20.873,0c1.767,0 3.258,-0.662 4.473,-1.988c1.215,-1.325 1.823,-2.871 1.823,-4.638Z" style="fill:#6c98e0;fill-rule:nonzero;"/><path d="M969.326,554.089c27.39,0 41.085,14.578 41.085,43.735l0,173.949l-46.387,0l0,-71.899l-33.464,0l0,71.899l-46.386,0l0,-173.949c0,-29.157 13.695,-43.735 41.085,-43.735l44.067,0Zm-38.766,110.001l33.464,0l0,-71.898c0,-1.767 -0.607,-3.314 -1.822,-4.639c-1.215,-1.325 -2.706,-1.988 -4.473,-1.988l-20.874,0c-1.767,0 -3.258,0.663 -4.473,1.988c-1.215,1.325 -1.822,2.872 -1.822,4.639l0,71.898Z" style="fill:#6c98e0;fill-rule:nonzero;"/><path d="M1180.38,613.728l-44.067,0l0,-16.898c0,-1.767 -0.608,-3.313 -1.822,-4.638c-1.215,-1.326 -2.706,-1.988 -4.473,-1.988l-18.223,0c-1.768,0 -3.259,0.662 -4.473,1.988c-1.215,1.325 -1.823,2.871 -1.823,4.638l0,38.103c0,1.767 0.608,3.314 1.823,4.639c1.214,1.325 2.705,1.988 4.473,1.988l29.819,0c27.39,0.442 41.085,15.02 41.085,43.736l0,46.054c0,29.157 -13.695,43.736 -41.085,43.736l-39.097,0c-27.39,0 -41.085,-14.579 -41.085,-43.736l0,-22.199l44.067,0l0,23.856c0,1.767 0.608,3.313 1.823,4.639c1.214,1.325 2.705,1.988 4.473,1.988l20.542,0c1.767,0 3.258,-0.663 4.473,-1.988c1.215,-1.326 1.822,-2.872 1.822,-4.639l0,-42.079c0,-1.767 -0.607,-3.313 -1.822,-4.638c-1.215,-1.326 -2.706,-1.988 -4.473,-1.988l-29.82,0c-27.39,0 -41.085,-14.579 -41.085,-43.736l0,-42.742c0,-29.157 13.695,-43.735 41.085,-43.735l36.778,0c27.39,0 41.085,14.578 41.085,43.735l0,15.904Z" style="fill:#6c98e0;fill-rule:nonzero;"/><path d="M1217.49,596.83l0,-39.428l115.965,0l0,39.428l-34.789,0l0,174.943l-46.387,0l0,-174.943l-34.789,0Z" style="fill:#6c98e0;fill-rule:nonzero;"/></g></svg>