<?xml version="1.0" standalone="yes"?>

<svg version="1.1" viewBox="0.0 0.0 430.26509186351706 156.14435695538057" fill="none" stroke="none" stroke-linecap="square" stroke-miterlimit="10" xmlns="http://www.w3.org/2000/svg" xmlns:xlink="http://www.w3.org/1999/xlink"><clipPath id="p.0"><path d="m0 0l430.2651 0l0 156.14436l-430.2651 0l0 -156.14436z" clip-rule="nonzero"></path></clipPath><g clip-path="url(#p.0)"><path fill="#000000" fill-opacity="0.0" d="m0 0l430.2651 0l0 156.14436l-430.2651 0z" fill-rule="evenodd"></path><path fill="#000000" fill-opacity="0.0" d="m0 0l499.65353 0l0 163.08661l-499.65353 0z" fill-rule="evenodd"></path><path fill="#f69f37" d="m43.5625 133.03625q-15.234375 0 -21.828125 -8.640625q-6.59375 -8.640625 -6.59375 -25.03125l0 -39.296875q0 -16.125 6.65625 -24.4375q6.65625 -8.328125 21.765625 -8.328125q15.09375 0 21.6875 8.390625q6.59375 8.375 6.59375 24.375l0 39.421875q0 16.140625 -6.65625 24.84375q-6.65625 8.703125 -21.625 8.703125zm0 -11.390625q8.0625 0 10.875 -4.734375q2.8125 -4.75 2.8125 -14.34375l0 -45.4375q0 -9.46875 -2.8125 -14.015625q-2.8125 -4.546875 -10.875 -4.546875q-8.1875 0 -11.015625 4.546875q-2.8125 4.546875 -2.8125 14.015625l0 45.4375q0 9.59375 2.8125 14.34375q2.828125 4.734375 11.015625 4.734375zm36.35138 -63.75l13.828125 0l9.078125 59.515625l9.21875 -59.515625l13.3125 0l-14.078125 73.984375l-16.765625 0l-14.59375 -73.984375zm74.748764 75.015625q-8.578125 0 -13.3125 -3.265625q-4.734375 -3.265625 -6.65625 -9.65625q-1.921875 -6.40625 -1.921875 -16.65625l0 -16.890625q0 -15.359375 4.796875 -22.46875q4.8125 -7.109375 17.09375 -7.109375q8.96875 0 13.5 3.71875q4.546875 3.71875 6.015625 10.4375q1.484375 6.71875 1.484375 18.109375l0 6.015625l-29.1875 0l0 9.859375q0 6.65625 0.3125 9.984375q0.328125 3.328125 2.046875 5.5625q1.734375 2.234375 5.703125 2.234375q4.484375 0 6.078125 -3.0q1.59375 -3.015625 1.59375 -9.15625l0 -4.484375l13.3125 0l0 2.828125q0 11.640625 -5.0 17.796875q-4.984375 6.140625 -15.859375 6.140625zm7.546875 -45.1875l0 -6.65625q0 -7.5625 -1.46875 -10.8125q-1.46875 -3.265625 -6.203125 -3.265625q-3.328125 0 -5.0625 1.53125q-1.71875 1.53125 -2.359375 5.0625q-0.640625 3.515625 -0.640625 10.171875l0 3.96875l15.734375 0zm26.24739 -29.828125l13.6875 0l0 10.5q3.84375 -6.28125 7.875 -8.828125q4.03125 -2.5625 8.515625 -2.5625q1.15625 0 2.171875 0.125l0 15.109375q-4.09375 -1.546875 -7.546875 -1.546875q-3.328125 0 -5.953125 1.609375q-2.625 1.59375 -5.0625 5.5625l0 54.015625l-13.6875 0l0 -73.984375zm60.931763 75.015625q-8.703125 0 -13.453125 -3.515625q-4.734375 -3.53125 -6.46875 -9.859375q-1.71875 -6.34375 -1.71875 -16.078125l0 -17.015625q0 -9.984375 1.71875 -16.375q1.734375 -6.40625 6.46875 -9.796875q4.75 -3.40625 13.453125 -3.40625q7.9375 0 12.34375 2.5625q4.421875 2.5625 6.140625 7.625q1.734375 5.046875 1.734375 13.109375l0 4.359375l-12.421875 0l0 -4.484375q0 -7.296875 -1.59375 -10.171875q-1.59375 -2.875 -6.078125 -2.875q-3.453125 0 -5.125 1.53125q-1.65625 1.53125 -2.296875 5.0q-0.640625 3.453125 -0.640625 10.109375l0 23.296875q0 6.390625 0.765625 9.78125q0.765625 3.390625 2.484375 4.734375q1.734375 1.34375 4.9375 1.34375q4.734375 0 6.140625 -3.125q1.40625 -3.140625 1.40625 -9.671875l0 -6.015625l12.421875 0l0 5.125q0 12.03125 -4.421875 17.921875q-4.40625 5.890625 -15.796875 5.890625zm45.686127 0q-4.21875 0 -7.609375 -2.4375q-3.390625 -2.4375 -5.3125 -6.40625q-1.921875 -3.96875 -1.921875 -8.3125q0 -8.703125 3.703125 -14.140625q3.71875 -5.453125 9.40625 -8.578125q5.703125 -3.140625 16.078125 -7.359375l0 -5.25q0 -7.296875 -1.484375 -10.296875q-1.46875 -3.015625 -5.9375 -3.015625q-7.8125 0 -7.8125 10.5l0 3.703125l-13.5625 -0.515625l0.125 -2.6875q0.640625 -11.125 6.203125 -16.1875q5.5625 -5.0625 15.9375 -5.0625q10.625 0 15.421875 5.828125q4.796875 5.828125 4.796875 17.609375l0 33.78125q0 8.328125 1.28125 17.796875l-12.546875 0q-1.40625 -7.296875 -1.78125 -10.875q-1.546875 4.984375 -5.328125 8.453125q-3.765625 3.453125 -9.65625 3.453125zm5.375 -11.78125q2.6875 0 5.25 -2.109375q2.5625 -2.109375 3.71875 -4.03125l0 -21.0q-5.640625 3.328125 -8.453125 5.1875q-2.8125 1.859375 -4.921875 5.0q-2.109375 3.125 -2.109375 7.34375q0 4.609375 1.65625 7.109375q1.671875 2.5 4.859375 2.5zm52.996765 11.78125q-8.953125 0 -14.53125 -5.625q-5.5625 -5.640625 -6.328125 -15.125l11.390625 -3.453125q0.890625 7.171875 3.25 10.625q2.375 3.453125 6.734375 3.453125q3.578125 0 5.875 -2.234375q2.3125 -2.234375 2.3125 -5.703125q0 -5.75 -6.015625 -10.875l-12.671875 -10.875q-4.34375 -3.71875 -6.71875 -7.75q-2.375 -4.03125 -2.375 -9.921875q0 -8.828125 5.125 -13.6875q5.125 -4.875 13.953125 -4.875q8.453125 0 13.25 5.453125q4.796875 5.4375 5.5625 14.015625l-9.21875 3.453125q-0.890625 -6.28125 -2.9375 -9.53125q-2.046875 -3.265625 -6.140625 -3.265625q-3.328125 0 -5.375 2.171875q-2.046875 2.171875 -1.921875 5.375q0 4.21875 3.703125 7.421875l13.0625 12.03125q4.859375 4.359375 7.671875 8.96875q2.828125 4.609375 2.828125 11.0q0 9.21875 -5.515625 14.09375q-5.5 4.859375 -14.96875 4.859375zm50.43451 0q-8.453125 0 -12.171875 -4.421875q-3.703125 -4.421875 -3.828125 -13.25l0 -48.25l-7.8125 0l0 -9.09375l7.8125 0l0 -21.625l13.6875 0l0 21.625l11.90625 0l0 9.09375l-11.90625 0l0 47.359375q0 4.46875 1.40625 6.265625q1.421875 1.796875 5.390625 1.796875q2.546875 0 4.984375 -0.390625l0 10.109375q-5.125 0.78125 -9.46875 0.78125z" fill-rule="nonzero"></path></g></svg>

